<?xml version="1.0" encoding="UTF-8"?>
<svg width="380px" height="380px" viewBox="0 0 200 200" xmlns="http://www.w3.org/2000/svg">
<path fill="#D8E7EE" d="M34.2,-53.8C48.4,-44.2,66.7,-41.5,71.7,-32.3C76.6,-23,68.1,-7.2,64.3,8.2C60.4,23.6,61.2,38.6,52.7,42.4C44.3,46.2,26.7,38.7,13.8,38.8C0.8,38.9,-7.6,46.5,-20.5,51.2C-33.4,55.8,-50.8,57.5,-62.3,50.5C-73.8,43.5,-79.3,27.8,-81.4,11.8C-83.5,-4.2,-82.1,-20.5,-71.1,-27.4C-60,-34.2,-39.3,-31.6,-25.8,-41.5C-12.4,-51.5,-6.2,-74.2,1.9,-77.2C10,-80.1,20.1,-63.5,34.2,-53.8Z" transform="translate(100 100)" />
</svg>