<?xml version="1.0" encoding="UTF-8"?>
  <svg xmlns="http://www.w3.org/2000/svg" viewBox="0 0 1440 320">
    <path
      fill="#89f73a"
      fillOpacity="1"
      d="M0,160L6.2,170.7C12.3,181,25,203,37,202.7C49.2,203,62,181,74,186.7C86.2,192,98,224,111,208C123.1,192,135,128,148,128C160,128,172,192,185,186.7C196.9,181,209,107,222,90.7C233.8,75,246,117,258,160C270.8,203,283,245,295,229.3C307.7,213,320,139,332,144C344.6,149,357,235,369,245.3C381.5,256,394,192,406,154.7C418.5,117,431,107,443,133.3C455.4,160,468,224,480,261.3C492.3,299,505,309,517,309.3C529.2,309,542,299,554,261.3C566.2,224,578,160,591,128C603.1,96,615,96,628,96C640,96,652,96,665,128C676.9,160,689,224,702,261.3C713.8,299,726,309,738,266.7C750.8,224,763,128,775,106.7C787.7,85,800,139,812,144C824.6,149,837,107,849,128C861.5,149,874,235,886,224C898.5,213,911,107,923,64C935.4,21,948,43,960,58.7C972.3,75,985,85,997,85.3C1009.2,85,1022,75,1034,69.3C1046.2,64,1058,64,1071,96C1083.1,128,1095,192,1108,213.3C1120,235,1132,213,1145,213.3C1156.9,213,1169,235,1182,208C1193.8,181,1206,107,1218,69.3C1230.8,32,1243,32,1255,64C1267.7,96,1280,160,1292,192C1304.6,224,1317,224,1329,202.7C1341.5,181,1354,139,1366,122.7C1378.5,107,1391,117,1403,112C1415.4,107,1428,85,1434,74.7L1440,64L1440,320L1433.8,320C1427.7,320,1415,320,1403,320C1390.8,320,1378,320,1366,320C1353.8,320,1342,320,1329,320C1316.9,320,1305,320,1292,320C1280,320,1268,320,1255,320C1243.1,320,1231,320,1218,320C1206.2,320,1194,320,1182,320C1169.2,320,1157,320,1145,320C1132.3,320,1120,320,1108,320C1095.4,320,1083,320,1071,320C1058.5,320,1046,320,1034,320C1021.5,320,1009,320,997,320C984.6,320,972,320,960,320C947.7,320,935,320,923,320C910.8,320,898,320,886,320C873.8,320,862,320,849,320C836.9,320,825,320,812,320C800,320,788,320,775,320C763.1,320,751,320,738,320C726.2,320,714,320,702,320C689.2,320,677,320,665,320C652.3,320,640,320,628,320C615.4,320,603,320,591,320C578.5,320,566,320,554,320C541.5,320,529,320,517,320C504.6,320,492,320,480,320C467.7,320,455,320,443,320C430.8,320,418,320,406,320C393.8,320,382,320,369,320C356.9,320,345,320,332,320C320,320,308,320,295,320C283.1,320,271,320,258,320C246.2,320,234,320,222,320C209.2,320,197,320,185,320C172.3,320,160,320,148,320C135.4,320,123,320,111,320C98.5,320,86,320,74,320C61.5,320,49,320,37,320C24.6,320,12,320,6,320L0,320Z"
    />
  </svg>